<svg version="1.1" id="Layer_1" xmlns="http://www.w3.org/2000/svg" xmlns:xlink="http://www.w3.org/1999/xlink" x="0px" y="0px"
	 width="100%" viewBox="0 0 900 372" enable-background="new 0 0 900 372" xml:space="preserve">
<path fill="#FFFFFF" opacity="1.000000" stroke="none" 
	d="
M580.000000,373.000000 
	C386.666656,373.000000 193.833328,373.000000 1.000000,373.000000 
	C1.000000,249.000000 1.000000,125.000000 1.000000,1.000000 
	C301.000000,1.000000 601.000000,1.000000 901.000000,1.000000 
	C901.000000,125.000000 901.000000,249.000000 901.000000,373.000000 
	C794.166687,373.000000 687.333313,373.000000 580.000000,373.000000 
M40.915794,298.119995 
	C266.124054,298.124481 491.332275,298.129395 716.540527,298.125183 
	C718.034546,298.125153 719.528625,297.999115 721.668457,298.065460 
	C722.103455,298.019958 722.538391,297.974457 723.807129,298.097198 
	C735.890625,296.831512 745.249573,291.056152 751.393311,280.622986 
	C785.176086,223.253860 818.866882,165.830612 852.553406,108.404854 
	C858.483582,98.295578 854.622803,91.456299 842.976135,91.190712 
	C842.309875,91.175522 841.643127,91.179695 840.976562,91.179688 
	C615.349915,91.177109 389.723236,91.156067 164.096588,91.219772 
	C150.565918,91.223587 139.988098,97.336746 133.099777,108.974518 
	C111.822990,144.921555 90.743973,180.985641 69.591347,217.006149 
	C56.944618,238.542068 44.273510,260.063782 31.674959,281.627869 
	C26.419901,290.622620 29.352022,297.005524 39.500275,298.059692 
	C39.500275,298.059692 39.988564,297.960846 40.915794,298.119995 
z"/>
<path fill="#F49B20" opacity="1.000000" stroke="none" 
	d="
M721.022644,297.931915 
	C719.528625,297.999115 718.034546,298.125153 716.540527,298.125183 
	C491.332275,298.129395 266.124054,298.124481 40.368774,297.876831 
	C39.553852,297.733948 39.285954,297.834229 39.018059,297.934509 
	C29.352022,297.005524 26.419901,290.622620 31.674959,281.627869 
	C44.273510,260.063782 56.944618,238.542068 69.591347,217.006149 
	C90.743973,180.985641 111.822990,144.921555 133.099777,108.974518 
	C139.988098,97.336746 150.565918,91.223587 164.096588,91.219772 
	C389.723236,91.156067 615.349915,91.177109 840.976562,91.179688 
	C841.643127,91.179695 842.309875,91.175522 842.976135,91.190712 
	C854.622803,91.456299 858.483582,98.295578 852.553406,108.404854 
	C818.866882,165.830612 785.176086,223.253860 751.393311,280.622986 
	C745.249573,291.056152 735.890625,296.831512 723.247253,297.797943 
	C722.132446,297.643097 721.577576,297.787506 721.022644,297.931915 
M663.675354,160.342712 
	C658.980103,159.993317 654.273499,159.752365 649.593201,159.260788 
	C645.732239,158.855255 644.870422,160.548828 644.899658,164.153275 
	C645.056458,183.445618 644.966125,202.739929 644.991699,222.033493 
	C644.993408,223.303329 645.247925,224.572845 645.487122,226.790329 
	C651.923889,226.156830 658.041138,225.554779 664.439209,224.763321 
	C664.325378,224.517746 664.211609,224.272156 663.927979,223.099182 
	C663.984619,212.723831 664.041199,202.348465 664.405334,191.802200 
	C664.302856,191.543762 664.200378,191.285309 663.927979,190.099457 
	C663.984619,180.723999 664.041199,171.348557 664.403015,161.802887 
	C664.300598,161.544724 664.198181,161.286560 663.675354,160.342712 
M405.436310,161.550659 
	C405.293915,162.190750 405.027924,162.830658 405.027100,163.470947 
	C405.001373,182.922562 404.986053,202.374252 405.040710,221.825729 
	C405.043701,222.884323 405.666016,223.941177 406.392212,225.552292 
	C412.871399,225.397018 419.350616,225.241730 426.483643,224.520859 
	C426.651428,223.891464 426.964600,223.262344 426.965759,222.632629 
	C426.996735,205.908371 427.020020,189.183914 426.948181,172.459930 
	C426.943085,171.272736 426.198853,170.088745 425.600525,168.052246 
	C425.600525,165.281067 425.600525,162.509903 425.600525,159.244949 
	C419.930969,159.244949 415.142212,159.112793 410.368683,159.324280 
	C408.908264,159.388977 407.489624,160.396881 405.436310,161.550659 
M568.424011,158.408981 
	C567.782104,158.274750 567.140320,158.024246 566.498230,158.023315 
	C549.886780,157.999405 533.275330,157.980209 516.664124,158.042725 
	C515.442444,158.047333 514.223206,158.673965 512.412781,159.348755 
	C509.519531,163.794174 506.626282,168.239578 503.171448,173.547882 
	C510.582184,173.547882 516.393677,173.749252 522.182678,173.474915 
	C525.856506,173.300812 527.095276,174.395889 527.022827,178.202530 
	C526.791809,190.336456 526.932129,202.477448 526.929504,214.615707 
	C526.928711,218.380478 526.929382,222.145248 526.929382,225.937042 
	C533.298096,225.937042 539.012146,225.937042 545.270142,225.937042 
	C545.270142,208.393051 545.270142,191.198715 545.270142,173.513107 
	C549.083740,173.513107 552.398499,173.191711 555.625671,173.586655 
	C560.768433,174.216034 564.201843,172.560013 566.126587,167.619339 
	C566.962769,165.472992 568.474915,163.597427 569.433716,161.486984 
	C569.719971,160.856934 569.171692,159.847794 568.424011,158.408981 
M592.454163,159.605240 
	C578.347168,162.228241 572.606445,168.687775 572.313293,183.020813 
	C572.051331,195.832489 572.370483,208.656158 572.097290,221.467392 
	C572.012329,225.453491 573.267395,226.641357 577.151917,226.606247 
	C593.629150,226.457291 610.108765,226.586411 626.587097,226.515167 
	C627.955627,226.509247 629.972290,226.196747 630.574219,225.288589 
	C633.078857,221.509491 635.156860,217.447571 637.870850,212.640137 
	C621.617920,212.640137 606.539917,212.640137 590.970032,212.640137 
	C590.970032,203.036652 590.913635,193.923462 590.986145,184.811264 
	C591.057190,175.889252 593.637512,173.305145 602.677124,173.170471 
	C609.999451,173.061386 617.334045,173.350342 624.642090,173.009933 
	C626.546692,172.921219 628.862549,171.550659 630.121948,170.043762 
	C632.113892,167.660278 633.301636,164.620148 634.963745,161.941086 
	C636.584045,159.329422 634.598389,159.317352 632.393311,158.379486 
	C623.641724,158.252792 614.890259,158.069260 606.138428,158.048218 
	C604.425659,158.044098 602.711487,158.669678 600.141846,159.195755 
	C598.102661,159.154419 596.063538,159.113068 593.831726,158.720337 
	C593.564148,158.858856 593.296509,158.997391 592.454163,159.605240 
M279.267609,159.191284 
	C278.517181,159.139343 277.766724,159.087387 276.523651,158.462097 
	C274.960419,158.321655 273.397858,158.163437 271.831573,158.104309 
	C271.767517,158.101883 271.668274,159.031342 270.927887,159.885757 
	C268.581970,160.684235 266.099701,161.215088 263.914368,162.328705 
	C255.577362,166.577164 253.239014,174.284470 253.078903,182.783752 
	C252.828171,196.095062 252.979950,209.414169 252.995255,222.729935 
	C252.996521,223.831512 253.256836,224.932785 253.374588,225.859573 
	C253.996277,226.135437 254.295074,226.383377 254.594818,226.384537 
	C272.567200,226.453506 290.539642,226.524033 308.511963,226.494461 
	C309.513123,226.492813 310.947906,225.924011 311.439850,225.148895 
	C313.873108,221.315201 316.056946,217.323212 318.612274,212.895798 
	C316.848602,212.661026 316.057831,212.460724 315.268066,212.464828 
	C302.289703,212.532089 289.310181,212.546768 276.334137,212.765991 
	C272.979187,212.822693 271.546326,211.912140 271.657349,208.286041 
	C271.901733,200.303711 271.684052,192.308487 271.814362,184.321106 
	C271.951630,175.908035 274.527313,173.322571 282.943268,173.181641 
	C290.597809,173.053467 298.261139,173.290848 305.908447,173.021637 
	C307.541809,172.964127 309.608582,171.793320 310.625153,170.478043 
	C312.641144,167.869675 313.948547,164.727356 315.767273,161.948746 
	C317.394745,159.462341 315.803497,159.233948 313.876282,158.311584 
	C303.301422,158.212769 292.726624,158.094513 282.151550,158.058258 
	C281.435577,158.055801 280.717468,158.671036 279.267609,159.191284 
M476.135803,192.909302 
	C476.076569,203.276840 476.017303,213.644394 475.635742,224.173569 
	C475.569458,224.272430 475.425201,224.425766 475.449890,224.461060 
	C475.580505,224.647949 475.753632,224.805130 476.481567,225.633881 
	C482.924561,225.443130 489.367584,225.252380 496.207458,224.850845 
	C496.058807,224.543549 495.910156,224.236237 495.550751,223.019073 
	C495.624023,206.690201 495.697296,190.361343 496.461517,173.946548 
	C496.230713,172.263550 495.999908,170.580536 495.556183,168.066727 
	C495.623230,166.076630 495.690308,164.086517 496.292175,161.785095 
	C496.065063,161.215927 495.837952,160.646774 494.990448,159.778854 
	C487.478912,159.617111 479.959625,159.214233 472.461029,159.455093 
	C470.467010,159.519135 467.722076,161.070129 466.704651,162.767365 
	C457.986389,177.310364 449.581635,192.041367 441.093018,206.721863 
	C437.472931,212.982605 433.876160,219.256821 429.867645,226.221970 
	C435.041565,226.221970 439.209717,225.917038 443.312042,226.306076 
	C447.580505,226.710876 449.834808,225.010986 451.890747,221.351349 
	C458.964172,208.760483 466.422302,196.385712 474.480652,183.953979 
	C474.978180,183.967941 475.475708,183.981903 476.143280,184.741714 
	C476.082550,185.499634 476.021790,186.257568 475.426849,187.470001 
	C475.604462,188.974640 475.782074,190.479279 476.135803,192.909302 
M361.415009,158.401184 
	C351.408905,158.273544 341.402924,158.114044 331.396484,158.080475 
	C330.619232,158.077850 329.839020,158.957809 329.107300,160.310226 
	C329.107300,182.209518 329.107300,204.108795 329.107300,227.090088 
	C344.725037,226.483398 359.688751,226.482742 374.529175,225.129929 
	C385.153625,224.161423 391.798828,217.286606 394.419739,206.818192 
	C396.770233,197.429871 396.724976,187.990997 394.470856,178.641006 
	C392.143097,168.985565 385.670410,163.280807 376.189972,160.839050 
	C373.799561,160.223389 371.371063,159.755722 368.629333,158.611023 
	C367.414124,158.753143 366.198883,158.895279 364.246277,159.211151 
	C363.497375,159.140411 362.748474,159.069656 361.415009,158.401184 
M193.387787,226.221405 
	C198.883728,227.211731 202.007202,225.002396 204.574509,219.885010 
	C209.792740,209.483475 215.865326,199.509872 221.624039,189.381638 
	C222.024811,188.676773 222.740662,188.151047 224.030792,186.770996 
	C224.030792,200.456238 224.030792,213.049866 224.030792,225.909363 
	C230.435501,225.909363 236.455139,225.909363 242.773834,225.909363 
	C242.773834,206.543594 242.767365,187.567368 242.776596,168.591125 
	C242.781174,159.152985 242.712326,159.985428 233.180740,159.048157 
	C223.254822,158.072113 217.586792,161.545776 213.669998,170.522263 
	C210.554840,177.661545 205.919174,184.137390 201.958557,190.907776 
	C201.572739,190.771225 201.186920,190.634689 200.801102,190.498154 
	C200.801102,180.278366 200.801102,170.058578 200.801102,159.374084 
	C194.388718,159.374084 188.430069,159.525558 182.484543,159.311722 
	C179.400513,159.200806 177.730499,160.332840 176.208633,163.014267 
	C167.746735,177.923370 159.051132,192.699646 150.476593,207.545105 
	C147.026291,213.518738 143.680450,219.552734 139.906616,226.232697 
	C145.551163,226.232697 150.229370,226.545898 154.829346,226.082458 
	C156.737045,225.890228 159.132385,224.463562 160.174622,222.862030 
	C163.707092,217.433945 166.709213,211.662491 169.960297,206.049057 
	C173.574905,199.807983 177.240311,193.596298 180.883606,187.371826 
	C181.250519,187.474106 181.617447,187.576370 181.984375,187.678650 
	C181.984375,200.361816 181.984375,213.044998 181.984375,226.221573 
	C185.846985,226.221573 189.137466,226.221573 193.387787,226.221405 
M696.774048,159.295013 
	C692.796448,158.646683 690.476196,160.284225 688.542847,163.913574 
	C684.007874,172.426376 679.062317,180.728973 674.042725,188.970367 
	C672.344299,191.759033 672.314758,193.954697 673.989014,196.740448 
	C679.217346,205.439957 684.176636,214.300812 689.335938,223.042618 
	C690.049072,224.250946 691.255859,225.979935 692.312195,226.037628 
	C697.827393,226.338913 703.367859,226.178207 710.069031,226.178207 
	C704.670959,216.909271 700.245850,208.545517 695.064087,200.680328 
	C691.558777,195.359863 690.739258,190.997238 694.838196,185.542343 
	C698.613464,180.518204 701.428467,174.765305 704.587097,169.287689 
	C706.359985,166.213104 707.972168,163.045822 709.998840,159.285645 
	C705.302368,159.285645 701.497925,159.285645 696.774048,159.295013 
M597.181396,196.288879 
	C597.981628,197.062546 598.769287,198.492508 599.584106,198.508148 
	C607.568909,198.661575 615.559387,198.642120 623.544922,198.492355 
	C624.664978,198.471344 626.204956,197.775574 626.796021,196.889084 
	C628.667725,194.081757 630.181702,191.035858 632.225830,187.381760 
	C624.965515,187.381760 618.628479,187.880676 612.405457,187.251602 
	C605.126831,186.515839 599.918213,188.330780 597.181396,196.288879 
M296.520386,187.405563 
	C294.530334,187.405960 292.540314,187.403412 290.550262,187.407318 
	C283.024902,187.422073 279.938293,190.270248 278.725952,198.557785 
	C287.525909,198.557785 296.288422,198.602066 305.049164,198.497040 
	C306.048553,198.485046 307.441864,197.905212 307.959564,197.127441 
	C309.839752,194.302826 311.425079,191.281906 313.656464,187.405991 
	C307.640381,187.405991 302.575592,187.405991 296.520386,187.405563 
z"/>
<path fill="#F38F05" opacity="1.000000" stroke="none" 
	d="
M721.345581,297.998688 
	C721.577576,297.787506 722.132446,297.643097 722.830383,297.713837 
	C722.538391,297.974457 722.103455,298.019958 721.345581,297.998688 
z"/>
<path fill="#F38F05" opacity="1.000000" stroke="none" 
	d="
M39.259163,297.997101 
	C39.285954,297.834229 39.553852,297.733948 39.905159,297.797241 
	C39.988564,297.960846 39.500275,298.059692 39.259163,297.997101 
z"/>
<path fill="#FEFCF9" opacity="1.000000" stroke="none" 
	d="
M192.907867,226.221497 
	C189.137466,226.221573 185.846985,226.221573 181.984375,226.221573 
	C181.984375,213.044998 181.984375,200.361816 181.984375,187.678650 
	C181.617447,187.576370 181.250519,187.474106 180.883606,187.371826 
	C177.240311,193.596298 173.574905,199.807983 169.960297,206.049057 
	C166.709213,211.662491 163.707092,217.433945 160.174622,222.862030 
	C159.132385,224.463562 156.737045,225.890228 154.829346,226.082458 
	C150.229370,226.545898 145.551163,226.232697 139.906616,226.232697 
	C143.680450,219.552734 147.026291,213.518738 150.476593,207.545105 
	C159.051132,192.699646 167.746735,177.923370 176.208633,163.014267 
	C177.730499,160.332840 179.400513,159.200806 182.484543,159.311722 
	C188.430069,159.525558 194.388718,159.374084 200.801102,159.374084 
	C200.801102,170.058578 200.801102,180.278366 200.801102,190.498154 
	C201.186920,190.634689 201.572739,190.771225 201.958557,190.907776 
	C205.919174,184.137390 210.554840,177.661545 213.669998,170.522263 
	C217.586792,161.545776 223.254822,158.072113 233.180740,159.048157 
	C242.712326,159.985428 242.781174,159.152985 242.776596,168.591125 
	C242.767365,187.567368 242.773834,206.543594 242.773834,225.909363 
	C236.455139,225.909363 230.435501,225.909363 224.030792,225.909363 
	C224.030792,213.049866 224.030792,200.456238 224.030792,186.770996 
	C222.740662,188.151047 222.024811,188.676773 221.624039,189.381638 
	C215.865326,199.509872 209.792740,209.483475 204.574509,219.885010 
	C202.007202,225.002396 198.883728,227.211731 192.907867,226.221497 
z"/>
<path fill="#FEFCF9" opacity="1.000000" stroke="none" 
	d="
M368.960052,159.220047 
	C371.371063,159.755722 373.799561,160.223389 376.189972,160.839050 
	C385.670410,163.280807 392.143097,168.985565 394.470856,178.641006 
	C396.724976,187.990997 396.770233,197.429871 394.419739,206.818192 
	C391.798828,217.286606 385.153625,224.161423 374.529175,225.129929 
	C359.688751,226.482742 344.725037,226.483398 329.107300,227.090088 
	C329.107300,204.108795 329.107300,182.209518 329.544067,159.791840 
	C340.653748,159.181946 351.326660,159.090439 361.999573,158.998917 
	C362.748474,159.069656 363.497375,159.140411 365.006104,159.208618 
	C366.830627,159.210724 367.895355,159.215378 368.960052,159.220047 
M349.029938,212.715317 
	C354.665802,212.445206 360.316010,212.341034 365.933380,211.856552 
	C371.153961,211.406281 375.082306,208.327850 375.581512,203.268646 
	C376.288605,196.103119 376.219666,188.770386 375.560974,181.593689 
	C375.145508,177.067261 371.369995,174.477020 366.819885,174.015411 
	C361.706207,173.496613 356.542023,173.495972 351.415253,173.079788 
	C348.126862,172.812836 347.068024,174.086212 347.117523,177.342545 
	C347.276764,187.819534 347.147919,198.300659 347.225586,208.779465 
	C347.234680,210.008591 347.837646,211.233307 349.029938,212.715317 
z"/>
<path fill="#FEFCF9" opacity="1.000000" stroke="none" 
	d="
M495.810577,225.061630 
	C489.367584,225.252380 482.924561,225.443130 476.266785,225.065887 
	C476.052002,224.497894 475.958069,224.011932 475.958069,224.011932 
	C476.017303,213.644394 476.076569,203.276840 476.111328,192.035797 
	C476.044891,189.780029 476.002960,188.397766 475.961029,187.015488 
	C476.021790,186.257568 476.082550,185.499634 476.122101,184.035461 
	C476.008331,182.488617 475.915741,181.648026 475.702515,179.712311 
	C474.749329,181.753754 474.241577,182.841171 473.733826,183.928589 
	C466.422302,196.385712 458.964172,208.760483 451.890747,221.351349 
	C449.834808,225.010986 447.580505,226.710876 443.312042,226.306076 
	C439.209717,225.917038 435.041565,226.221970 429.867645,226.221970 
	C433.876160,219.256821 437.472931,212.982605 441.093018,206.721863 
	C449.581635,192.041367 457.986389,177.310364 466.704651,162.767365 
	C467.722076,161.070129 470.467010,159.519135 472.461029,159.455093 
	C479.959625,159.214233 487.478912,159.617111 495.272369,160.267487 
	C495.621979,161.202881 495.689667,161.649658 495.757324,162.096420 
	C495.690308,164.086517 495.623230,166.076630 495.577606,168.906311 
	C495.656219,171.174759 495.713409,172.603607 495.770599,174.032471 
	C495.697296,190.361343 495.624023,206.690201 495.595642,223.760468 
	C495.697205,224.688446 495.753876,224.875031 495.810577,225.061630 
z"/>
<path fill="#FEFCF9" opacity="1.000000" stroke="none" 
	d="
M313.995331,158.972137 
	C315.803497,159.233948 317.394745,159.462341 315.767273,161.948746 
	C313.948547,164.727356 312.641144,167.869675 310.625153,170.478043 
	C309.608582,171.793320 307.541809,172.964127 305.908447,173.021637 
	C298.261139,173.290848 290.597809,173.053467 282.943268,173.181641 
	C274.527313,173.322571 271.951630,175.908035 271.814362,184.321106 
	C271.684052,192.308487 271.901733,200.303711 271.657349,208.286041 
	C271.546326,211.912140 272.979187,212.822693 276.334137,212.765991 
	C289.310181,212.546768 302.289703,212.532089 315.268066,212.464828 
	C316.057831,212.460724 316.848602,212.661026 318.612274,212.895798 
	C316.056946,217.323212 313.873108,221.315201 311.439850,225.148895 
	C310.947906,225.924011 309.513123,226.492813 308.511963,226.494461 
	C290.539642,226.524033 272.567200,226.453506 254.594818,226.384537 
	C254.295074,226.383377 253.996277,226.135437 253.374588,225.859573 
	C253.256836,224.932785 252.996521,223.831512 252.995255,222.729935 
	C252.979950,209.414169 252.828171,196.095062 253.078903,182.783752 
	C253.239014,174.284470 255.577362,166.577164 263.914368,162.328705 
	C266.099701,161.215088 268.581970,160.684235 271.637207,159.737976 
	C273.903107,159.405289 275.459686,159.220352 277.016296,159.035431 
	C277.766724,159.087387 278.517181,159.139343 280.098267,159.165283 
	C291.951050,159.083572 302.973175,159.027847 313.995331,158.972137 
z"/>
<path fill="#FEFCF9" opacity="1.000000" stroke="none" 
	d="
M632.984131,158.965103 
	C634.598389,159.317352 636.584045,159.329422 634.963745,161.941086 
	C633.301636,164.620148 632.113892,167.660278 630.121948,170.043762 
	C628.862549,171.550659 626.546692,172.921219 624.642090,173.009933 
	C617.334045,173.350342 609.999451,173.061386 602.677124,173.170471 
	C593.637512,173.305145 591.057190,175.889252 590.986145,184.811264 
	C590.913635,193.923462 590.970032,203.036652 590.970032,212.640137 
	C606.539917,212.640137 621.617920,212.640137 637.870850,212.640137 
	C635.156860,217.447571 633.078857,221.509491 630.574219,225.288589 
	C629.972290,226.196747 627.955627,226.509247 626.587097,226.515167 
	C610.108765,226.586411 593.629150,226.457291 577.151917,226.606247 
	C573.267395,226.641357 572.012329,225.453491 572.097290,221.467392 
	C572.370483,208.656158 572.051331,195.832489 572.313293,183.020813 
	C572.606445,168.687775 578.347168,162.228241 592.993530,159.402863 
	C593.696716,159.157547 593.860535,159.114624 594.024353,159.071716 
	C596.063538,159.113068 598.102661,159.154419 601.034363,159.169846 
	C612.279297,159.084320 622.631714,159.024719 632.984131,158.965103 
z"/>
<path fill="#FFFDFB" opacity="1.000000" stroke="none" 
	d="
M569.005798,159.012344 
	C569.171692,159.847794 569.719971,160.856934 569.433716,161.486984 
	C568.474915,163.597427 566.962769,165.472992 566.126587,167.619339 
	C564.201843,172.560013 560.768433,174.216034 555.625671,173.586655 
	C552.398499,173.191711 549.083740,173.513107 545.270142,173.513107 
	C545.270142,191.198715 545.270142,208.393051 545.270142,225.937042 
	C539.012146,225.937042 533.298096,225.937042 526.929382,225.937042 
	C526.929382,222.145248 526.928711,218.380478 526.929504,214.615707 
	C526.932129,202.477448 526.791809,190.336456 527.022827,178.202530 
	C527.095276,174.395889 525.856506,173.300812 522.182678,173.474915 
	C516.393677,173.749252 510.582184,173.547882 503.171448,173.547882 
	C506.626282,168.239578 509.519531,163.794174 513.168274,159.273193 
	C532.284424,159.135864 550.645142,159.074097 569.005798,159.012344 
z"/>
<path fill="#FEFCF7" opacity="1.000000" stroke="none" 
	d="
M425.829773,225.086441 
	C419.350616,225.241730 412.871399,225.397018 406.305206,224.817551 
	C406.162750,203.046158 406.107300,182.009491 406.051849,160.972839 
	C407.489624,160.396881 408.908264,159.388977 410.368683,159.324280 
	C415.142212,159.112793 419.930969,159.244949 425.600525,159.244949 
	C425.600525,162.509903 425.600525,165.281067 425.608185,168.948578 
	C425.687164,188.258759 425.758484,206.672607 425.829773,225.086441 
z"/>
<path fill="#FEFBF7" opacity="1.000000" stroke="none" 
	d="
M697.233765,159.290329 
	C701.497925,159.285645 705.302368,159.285645 709.998840,159.285645 
	C707.972168,163.045822 706.359985,166.213104 704.587097,169.287689 
	C701.428467,174.765305 698.613464,180.518204 694.838196,185.542343 
	C690.739258,190.997238 691.558777,195.359863 695.064087,200.680328 
	C700.245850,208.545517 704.670959,216.909271 710.069031,226.178207 
	C703.367859,226.178207 697.827393,226.338913 692.312195,226.037628 
	C691.255859,225.979935 690.049072,224.250946 689.335938,223.042618 
	C684.176636,214.300812 679.217346,205.439957 673.989014,196.740448 
	C672.314758,193.954697 672.344299,191.759033 674.042725,188.970367 
	C679.062317,180.728973 684.007874,172.426376 688.542847,163.913574 
	C690.476196,160.284225 692.796448,158.646683 697.233765,159.290329 
z"/>
<path fill="#FEFCF9" opacity="1.000000" stroke="none" 
	d="
M664.097839,191.973114 
	C664.041199,202.348465 663.984619,212.723831 663.968994,223.798264 
	C664.010071,224.497345 664.158386,224.952698 664.158386,224.952698 
	C658.041138,225.554779 651.923889,226.156830 645.487122,226.790329 
	C645.247925,224.572845 644.993408,223.303329 644.991699,222.033493 
	C644.966125,202.739929 645.056458,183.445618 644.899658,164.153275 
	C644.870422,160.548828 645.732239,158.855255 649.593201,159.260788 
	C654.273499,159.752365 658.980103,159.993317 663.837402,160.921814 
	C663.999390,161.500931 664.097839,161.973099 664.097839,161.973099 
	C664.041199,171.348557 663.984619,180.723999 663.963928,190.799728 
	C663.999878,191.500000 664.097839,191.973114 664.097839,191.973114 
z"/>
<path fill="#FDF9F3" opacity="1.000000" stroke="none" 
	d="
M597.347534,195.983597 
	C599.918213,188.330780 605.126831,186.515839 612.405457,187.251602 
	C618.628479,187.880676 624.965515,187.381760 632.225830,187.381760 
	C630.181702,191.035858 628.667725,194.081757 626.796021,196.889084 
	C626.204956,197.775574 624.664978,198.471344 623.544922,198.492355 
	C615.559387,198.642120 607.568909,198.661575 599.584106,198.508148 
	C598.769287,198.492508 597.981628,197.062546 597.347534,195.983597 
z"/>
<path fill="#FEFCF9" opacity="1.000000" stroke="none" 
	d="
M297.015625,187.405777 
	C302.575592,187.405991 307.640381,187.405991 313.656464,187.405991 
	C311.425079,191.281906 309.839752,194.302826 307.959564,197.127441 
	C307.441864,197.905212 306.048553,198.485046 305.049164,198.497040 
	C296.288422,198.602066 287.525909,198.557785 278.725952,198.557785 
	C279.938293,190.270248 283.024902,187.422073 290.550262,187.407318 
	C292.540314,187.403412 294.530334,187.405960 297.015625,187.405777 
z"/>
<path fill="#EC9609" opacity="1.000000" stroke="none" 
	d="
M405.744080,161.261749 
	C406.107300,182.009491 406.162750,203.046158 406.109131,224.540817 
	C405.666016,223.941177 405.043701,222.884323 405.040710,221.825729 
	C404.986053,202.374252 405.001373,182.922562 405.027100,163.470947 
	C405.027924,162.830658 405.293915,162.190750 405.744080,161.261749 
z"/>
<path fill="#EC9609" opacity="1.000000" stroke="none" 
	d="
M568.714905,158.710663 
	C550.645142,159.074097 532.284424,159.135864 513.463257,159.104523 
	C514.223206,158.673965 515.442444,158.047333 516.664124,158.042725 
	C533.275330,157.980209 549.886780,157.999405 566.498230,158.023315 
	C567.140320,158.024246 567.782104,158.274750 568.714905,158.710663 
z"/>
<path fill="#F19411" opacity="1.000000" stroke="none" 
	d="
M426.156708,224.803650 
	C425.758484,206.672607 425.687164,188.258759 425.707092,169.374084 
	C426.198853,170.088745 426.943085,171.272736 426.948181,172.459930 
	C427.020020,189.183914 426.996735,205.908371 426.965759,222.632629 
	C426.964600,223.262344 426.651428,223.891464 426.156708,224.803650 
z"/>
<path fill="#F38F05" opacity="1.000000" stroke="none" 
	d="
M313.935791,158.641846 
	C302.973175,159.027847 291.951050,159.083572 280.464630,159.069122 
	C280.717468,158.671036 281.435577,158.055801 282.151550,158.058258 
	C292.726624,158.094513 303.301422,158.212769 313.935791,158.641846 
z"/>
<path fill="#F38F05" opacity="1.000000" stroke="none" 
	d="
M361.707275,158.700043 
	C351.326660,159.090439 340.653748,159.181946 329.520508,159.350510 
	C329.839020,158.957809 330.619232,158.077850 331.396484,158.080475 
	C341.402924,158.114044 351.408905,158.273544 361.707275,158.700043 
z"/>
<path fill="#F38F05" opacity="1.000000" stroke="none" 
	d="
M632.688721,158.672302 
	C622.631714,159.024719 612.279297,159.084320 601.462402,159.074371 
	C602.711487,158.669678 604.425659,158.044098 606.138428,158.048218 
	C614.890259,158.069260 623.641724,158.252792 632.688721,158.672302 
z"/>
<path fill="#F38F05" opacity="1.000000" stroke="none" 
	d="
M276.769958,158.748764 
	C275.459686,159.220352 273.903107,159.405289 271.965973,159.558411 
	C271.668274,159.031342 271.767517,158.101883 271.831573,158.104309 
	C273.397858,158.163437 274.960419,158.321655 276.769958,158.748764 
z"/>
<path fill="#F19411" opacity="1.000000" stroke="none" 
	d="
M496.116058,173.989502 
	C495.713409,172.603607 495.656219,171.174759 495.684082,169.321716 
	C495.999908,170.580536 496.230713,172.263550 496.116058,173.989502 
z"/>
<path fill="#F38F05" opacity="1.000000" stroke="none" 
	d="
M474.107239,183.941284 
	C474.241577,182.841171 474.749329,181.753754 475.702515,179.712311 
	C475.915741,181.648026 476.008331,182.488617 476.037079,183.662537 
	C475.475708,183.981903 474.978180,183.967941 474.107239,183.941284 
z"/>
<path fill="#F38F05" opacity="1.000000" stroke="none" 
	d="
M475.693939,187.242737 
	C476.002960,188.397766 476.044891,189.780029 476.023254,191.573120 
	C475.782074,190.479279 475.604462,188.974640 475.693939,187.242737 
z"/>
<path fill="#F38F05" opacity="1.000000" stroke="none" 
	d="
M368.794678,158.915527 
	C367.895355,159.215378 366.830627,159.210724 365.374817,159.121735 
	C366.198883,158.895279 367.414124,158.753143 368.794678,158.915527 
z"/>
<path fill="#F19411" opacity="1.000000" stroke="none" 
	d="
M496.024750,161.940765 
	C495.689667,161.649658 495.621979,161.202881 495.582581,160.416855 
	C495.837952,160.646774 496.065063,161.215927 496.024750,161.940765 
z"/>
<path fill="#F38F05" opacity="1.000000" stroke="none" 
	d="
M664.250427,161.888000 
	C664.097839,161.973099 663.999390,161.500931 664.047607,161.264648 
	C664.198181,161.286560 664.300598,161.544724 664.250427,161.888000 
z"/>
<path fill="#F38F05" opacity="1.000000" stroke="none" 
	d="
M664.251587,191.887665 
	C664.097839,191.973114 663.999878,191.500000 664.048889,191.263428 
	C664.200378,191.285309 664.302856,191.543762 664.251587,191.887665 
z"/>
<path fill="#F38F05" opacity="1.000000" stroke="none" 
	d="
M475.796906,224.092743 
	C475.958069,224.011932 476.052002,224.497894 475.982025,224.735260 
	C475.753632,224.805130 475.580505,224.647949 475.449890,224.461060 
	C475.425201,224.425766 475.569458,224.272430 475.796906,224.092743 
z"/>
<path fill="#F19411" opacity="1.000000" stroke="none" 
	d="
M496.009033,224.956238 
	C495.753876,224.875031 495.697205,224.688446 495.701050,224.215393 
	C495.910156,224.236237 496.058807,224.543549 496.009033,224.956238 
z"/>
<path fill="#F38F05" opacity="1.000000" stroke="none" 
	d="
M664.298828,224.858002 
	C664.158386,224.952698 664.010071,224.497345 664.053955,224.261963 
	C664.211609,224.272156 664.325378,224.517746 664.298828,224.858002 
z"/>
<path fill="#F38F05" opacity="1.000000" stroke="none" 
	d="
M593.928040,158.896027 
	C593.860535,159.114624 593.696716,159.157547 593.280884,159.168198 
	C593.296509,158.997391 593.564148,158.858856 593.928040,158.896027 
z"/>
<path fill="#F49D25" opacity="1.000000" stroke="none" 
	d="
M348.597626,212.587708 
	C347.837646,211.233307 347.234680,210.008591 347.225586,208.779465 
	C347.147919,198.300659 347.276764,187.819534 347.117523,177.342545 
	C347.068024,174.086212 348.126862,172.812836 351.415253,173.079788 
	C356.542023,173.495972 361.706207,173.496613 366.819885,174.015411 
	C371.369995,174.477020 375.145508,177.067261 375.560974,181.593689 
	C376.219666,188.770386 376.288605,196.103119 375.581512,203.268646 
	C375.082306,208.327850 371.153961,211.406281 365.933380,211.856552 
	C360.316010,212.341034 354.665802,212.445206 348.597626,212.587708 
z"/>
</svg>